<?xml version="1.0" encoding="utf-8"?>
<!-- Generator: Adobe Illustrator 24.0.1, SVG Export Plug-In . SVG Version: 6.00 Build 0)  -->
<svg version="1.1" id="Layer_1" xmlns="http://www.w3.org/2000/svg" xmlns:xlink="http://www.w3.org/1999/xlink" x="0px" y="0px"
	 viewBox="0 0 132 64" style="enable-background:new 0 0 132 64;" xml:space="preserve">
<style type="text/css">
	.st0{fill:#6AC530;}
	.st1{fill:#5AA928;}
	.st2{fill:#FFFFFF;}
	.st3{fill:none;stroke:#FFFFFF;stroke-width:4;stroke-miterlimit:10;}
</style>
<path class="st0" d="M46.4,65H6.3c-4,0-7.3-3.3-7.3-7.3V6.3C-1,2.3,2.3-1,6.3-1h40.1C46.7-1,47-0.7,47-0.4v64.8
	C47,64.7,46.7,65,46.4,65z"/>
<path class="st1" d="M47.4,65h76.6c5.5,0,9.9-4.5,9.9-9.9V8.9c0-5.5-4.5-9.9-9.9-9.9H47.4C47.2-1,47-0.8,47-0.6v65.2
	C47,64.8,47.2,65,47.4,65z"/>
<g>
	<path class="st3" d="M33.5,20c0-6.6-4.8-11.5-10-11.5s-11,4.9-11,11.5"/>
	<path class="st2" d="M37.7,58H8.3C7,58,6,57,6,55.7V26.3C6,25,7,24,8.3,24h29.3c1.3,0,2.3,1,2.3,2.3v29.3C40,57,39,58,37.7,58z"/>
	<circle class="st0" cx="23" cy="38.5" r="4.5"/>
	<polygon class="st0" points="22.5,39 17.5,50 28.5,50 23.5,39 	"/>
</g>
<g>
	<rect x="53" y="7.5" class="st2" width="72" height="3"/>
	<rect x="53" y="53.5" class="st2" width="72" height="3"/>
	<rect x="53" y="35.5" class="st2" width="72" height="3"/>
</g>
<g>
	<path class="st2" d="M53.3,31.2V14.1h6c6.1,0,9.1,2.8,9.1,8.3c0,2.7-0.8,4.8-2.5,6.4c-1.7,1.6-3.9,2.4-6.6,2.4H53.3z M57.1,17.2V28
		H59c1.7,0,3-0.5,3.9-1.5c0.9-1,1.4-2.4,1.4-4.1c0-1.6-0.5-2.9-1.4-3.8c-0.9-0.9-2.3-1.4-4-1.4H57.1z"/>
	<path class="st2" d="M90.7,31.2h-3.8V20.9c0-1.1,0-2.3,0.1-3.7H87c-0.2,1-0.4,1.8-0.5,2.3l-4,11.6h-3.1l-4.1-11.5
		c-0.1-0.3-0.3-1.1-0.5-2.4h-0.1c0.1,1.7,0.2,3.2,0.2,4.4v9.4h-3.5V14.1h5.6l3.5,10.1c0.3,0.8,0.5,1.6,0.6,2.4h0.1
		c0.2-0.9,0.4-1.8,0.7-2.5l3.5-10.1h5.5V31.2z"/>
	<path class="st2" d="M106.8,30.5c-1.2,0.6-2.9,0.9-4.9,0.9c-2.6,0-4.7-0.8-6.2-2.3c-1.5-1.5-2.3-3.6-2.3-6.2c0-2.7,0.8-4.9,2.5-6.6
		c1.7-1.7,3.9-2.5,6.6-2.5c1.7,0,3.1,0.2,4.2,0.6v3.7c-1.1-0.7-2.4-1-3.9-1c-1.6,0-2.9,0.5-3.9,1.5c-1,1-1.5,2.4-1.5,4.1
		c0,1.7,0.5,3,1.4,3.9c0.9,1,2.2,1.5,3.8,1.5c1.5,0,2.9-0.4,4.1-1.1V30.5z"/>
	<path class="st2" d="M124.8,31.2h-4.2l-1.2-3.8h-6.1l-1.2,3.8H108l6.2-17.1h4.6L124.8,31.2z M118.5,24.4l-1.8-5.7
		c-0.1-0.4-0.2-0.9-0.3-1.5h-0.1c0,0.5-0.1,1-0.3,1.5l-1.9,5.8H118.5z"/>
</g>
<g>
	<path class="st2" d="M54.2,47.1v3.6h-0.6v-9h3.5c1.8,0,2.5,1.3,2.5,2.7s-0.7,2.7-2.5,2.7H54.2z M54.2,42.3v4.2H57c1.4,0,2-1,2-2.1
		c0-1-0.5-2.1-1.9-2.1H54.2z"/>
	<path class="st2" d="M62.1,47.1v3.6h-0.6v-9h3.3c1.8,0,2.5,1.3,2.5,2.7s-0.7,2.7-2.5,2.7h-0.2l2.6,3.6h-0.7l-2.6-3.6H62.1z
		 M62.1,42.3v4.2h2.7c1.4,0,2-1,2-2.1c0-1-0.5-2.1-1.9-2.1H62.1z"/>
	<path class="st2" d="M73.5,41.6c2.6,0,4.5,2.1,4.5,4.6c0,2.6-2,4.6-4.5,4.6c-2.5,0-4.5-2.1-4.5-4.6C68.9,43.7,70.9,41.6,73.5,41.6z
		 M73.5,50.3c2.2,0,4-1.8,4-4c0-2.3-1.7-4-4-4c-2.2,0-3.9,1.8-3.9,4C69.5,48.5,71.3,50.3,73.5,50.3z"/>
	<path class="st2" d="M78.7,41.7h6.6v0.6h-3v8.4h-0.6v-8.4h-3V41.7z"/>
	<path class="st2" d="M87.1,41.7h5v0.6h-4.4V46h3.9v0.6h-3.9v3.5h4.6v0.6h-5.2V41.7z"/>
	<path class="st2" d="M101.1,49.7c-0.8,0.8-1.8,1.2-3.1,1.2c-2.5,0-4.4-2.1-4.4-4.6c0-2.6,1.9-4.6,4.4-4.6c1.2,0,2.3,0.5,3.1,1.2
		l-0.4,0.4c-0.7-0.6-1.6-1-2.6-1c-2.2,0-3.8,1.8-3.8,4c0,2.2,1.6,4,3.8,4c1,0,2-0.4,2.6-1L101.1,49.7z"/>
	<path class="st2" d="M102,41.7h6.6v0.6h-3v8.4H105v-8.4h-3V41.7z"/>
	<path class="st2" d="M110.4,41.7h5v0.6H111V46h3.9v0.6H111v3.5h4.6v0.6h-5.2V41.7z"/>
	<path class="st2" d="M117.8,50.8v-9h3.4c2.6,0,4,2,4,4.5c0,2.6-1.4,4.5-4,4.5H117.8z M118.4,50.2h2.8c2.2,0,3.4-1.7,3.4-3.9
		c0-2.2-1.2-3.9-3.4-3.9h-2.8V50.2z"/>
</g>
</svg>
