<svg width="46" height="32" viewBox="0 0 46 32" fill="none" xmlns="http://www.w3.org/2000/svg"><path d="M0 3.887A3.887 3.887 0 013.887 0h38.166a3.887 3.887 0 013.888 3.887v24.226A3.887 3.887 0 0142.053 32H3.887A3.887 3.887 0 010 28.113V3.887z" fill="#0A3566"/><path fill-rule="evenodd" clip-rule="evenodd" d="M30.365 5.437h3.06l5.076 13.573h-3.098l-1.027-3.023h-5.075l-1.065 3.023h-3.004l5.133-13.573zm3.232 8.326l-1.711-4.98h-.038l-1.768 4.98h3.517zM40.775 8.968h1.997v1.074h-1.997v1.998H39.7v-1.998h-1.998V8.968h1.998V6.971h1.074v1.997z" fill="#FEFEFE"/><path fill-rule="evenodd" clip-rule="evenodd" d="M39.524 6.793h1.428v1.998h1.997v1.427h-1.997v1.998h-1.428v-1.998h-1.998V8.791h1.998V6.793zm.353.353v1.998H37.88v.72h1.997v1.998h.721V9.865h1.998v-.721h-1.998V7.146h-.72z" fill="#fff"/><path fill-rule="evenodd" clip-rule="evenodd" d="M24.879 22.518h.634v.864h.015c.164-.333.365-.579.602-.737.238-.158.539-.232.903-.222v.713c-.269 0-.499.037-.689.111-.19.074-.343.182-.46.325-.115.142-.2.315-.253.519a2.8 2.8 0 00-.079.7v1.822h-.673v-4.095zm6.004 4.08c-.116.068-.277.103-.483.103a.58.58 0 01-.416-.147c-.103-.098-.155-.257-.155-.48a1.61 1.61 0 01-.645.48c-.246.098-.511.147-.796.147a2.13 2.13 0 01-.527-.064 1.224 1.224 0 01-.432-.198.95.95 0 01-.289-.352 1.186 1.186 0 01-.107-.527c0-.232.04-.422.12-.57.078-.148.183-.268.312-.36.13-.093.277-.163.444-.21.166-.048.336-.088.51-.12.185-.037.36-.064.527-.083.167-.018.313-.044.44-.079a.732.732 0 00.3-.15c.075-.066.112-.163.112-.29a.672.672 0 00-.083-.356.57.57 0 00-.214-.206.867.867 0 00-.293-.095 2.218 2.218 0 00-.321-.024c-.285 0-.523.055-.713.163-.19.108-.293.313-.309.614h-.673c.01-.254.063-.468.158-.642s.222-.316.38-.424c.159-.108.34-.186.543-.233.203-.048.421-.072.653-.072.185 0 .369.014.55.04.183.026.348.08.496.162a.949.949 0 01.356.345c.09.148.135.34.135.578v2.107c0 .158.01.275.028.348.018.074.08.111.186.111a.667.667 0 00.206-.04v.523zm-1.093-2.1a.838.838 0 01-.333.14 5.062 5.062 0 01-.431.07c-.151.019-.303.04-.456.064-.153.024-.29.062-.412.115a.75.75 0 00-.297.225.633.633 0 00-.115.4c0 .111.023.205.068.282a.56.56 0 00.174.186.728.728 0 00.25.103c.094.02.195.031.3.031.222 0 .412-.03.57-.09a1.2 1.2 0 00.389-.23.905.905 0 00.221-.301.76.76 0 00.072-.305v-.69zm2.368-1.98h.816v.594h-.816v2.543c0 .08.007.143.02.19a.196.196 0 00.075.111.332.332 0 00.155.052c.066.007.151.011.257.011h.309v.594h-.515c-.174 0-.323-.011-.447-.035a.659.659 0 01-.301-.13.56.56 0 01-.17-.27 1.558 1.558 0 01-.056-.46v-2.606h-.697v-.594h.697v-1.227h.673v1.227zm1.988-.736h-.673v-.824h.673v.824zm-.673.736h.673v4.095h-.673v-4.095zm1.434 0h.633v.65h.016c.28-.496.724-.745 1.33-.745.27 0 .495.037.674.111.18.074.325.177.436.31.11.131.188.288.233.47.045.183.068.384.068.606v2.693h-.673v-2.772c0-.253-.075-.454-.222-.602-.148-.148-.352-.222-.61-.222-.206 0-.384.032-.535.095-.15.064-.276.154-.376.27a1.16 1.16 0 00-.226.408c-.05.155-.075.326-.075.51v2.313h-.673v-4.095zm7.651 3.747c0 .67-.153 1.172-.46 1.505-.306.332-.786.499-1.44.499a2.79 2.79 0 01-.583-.063 1.785 1.785 0 01-.539-.206 1.254 1.254 0 01-.4-.373 1.058 1.058 0 01-.174-.562h.673a.498.498 0 00.115.309.837.837 0 00.262.206c.102.053.215.09.336.115.122.023.238.035.349.035.221 0 .409-.038.562-.115.153-.076.28-.182.38-.316.1-.135.173-.297.218-.488.045-.19.067-.398.067-.625v-.27h-.015c-.117.254-.292.44-.527.559a1.637 1.637 0 01-.749.178c-.306 0-.573-.055-.8-.166a1.673 1.673 0 01-.57-.448 1.905 1.905 0 01-.344-.657 2.71 2.71 0 01-.115-.796c0-.243.031-.493.095-.749.063-.256.169-.488.316-.697.148-.209.344-.38.587-.515.243-.134.54-.202.895-.202.258 0 .496.057.713.17.216.114.385.284.507.512h.007v-.587h.634v3.747zm-1.885-.198c.222 0 .41-.046.566-.139.156-.092.282-.214.377-.364.095-.15.165-.32.21-.511.044-.19.067-.38.067-.57 0-.18-.021-.357-.064-.531a1.48 1.48 0 00-.202-.471 1.049 1.049 0 00-.36-.337 1.07 1.07 0 00-.539-.127c-.216 0-.4.041-.554.123a1.077 1.077 0 00-.376.329 1.392 1.392 0 00-.214.475 2.31 2.31 0 00-.068.563c0 .184.019.37.056.554.037.185.1.352.19.503.09.15.209.272.356.364.148.093.333.139.555.139z" fill="#FEFEFE"/><path fill-rule="evenodd" clip-rule="evenodd" d="M13.943 14.842H6.7l-.263.852h1.93l.369 1.176h3.173l.367-1.176h1.93l-.263-.852zM7.882 10.054c-.268.364-.376.81-.305 1.254.073.445.317.836.686 1.1l1.734 1.24a.416.416 0 01.095.59l.261.184.916-1.243a1.659 1.659 0 00.305-1.255 1.674 1.674 0 00-.686-1.1L9.155 9.586a.417.417 0 01-.096-.589l-.261-.186-.916 1.244zM8.927 5.068a2.401 2.401 0 00-.442 1.82c.105.645.458 1.212.995 1.595l2.178 1.553a1.302 1.302 0 01.55 1.063c0 .275-.087.54-.254.767l.21.149 1.716-2.336a2.42 2.42 0 00-.553-3.414l-2.63-1.882a.748.748 0 01-.171-1.053l-.208-.148-1.39 1.886zM6.51 20.978c.415 0 .665-.145.665-.457v-.012c0-.282-.213-.457-.696-.457H5.392v.926H6.51zm-.25-1.695c.415 0 .677-.133.677-.445v-.012c0-.277-.22-.433-.616-.433h-.929v.89h.868zM4.477 17.58H6.46c.488 0 .873.132 1.117.373a.956.956 0 01.293.715v.012c0 .475-.256.74-.562.908.495.187.8.47.8 1.034v.012c0 .77-.635 1.154-1.6 1.154H4.478v-4.208zM10.552 20.978c.415 0 .666-.145.666-.457v-.012c0-.282-.214-.457-.697-.457H9.435v.926h1.117zm-.25-1.695c.415 0 .677-.133.677-.445v-.012c0-.277-.22-.433-.616-.433h-.928v.89h.867zM8.519 17.58h1.984c.489 0 .873.132 1.117.373a.959.959 0 01.294.715v.012c0 .475-.257.74-.562.908.494.187.8.47.8 1.034v.012c0 .77-.635 1.154-1.6 1.154H8.519v-4.208zM14.594 20.978c.415 0 .666-.145.666-.457v-.012c0-.282-.215-.457-.697-.457h-1.087v.926h1.118zm-.25-1.695c.415 0 .677-.133.677-.445v-.012c0-.277-.22-.433-.617-.433h-.928v.89h.867zM12.56 17.58h1.984c.489 0 .873.132 1.117.373a.958.958 0 01.293.715v.012c0 .475-.256.74-.562.908.495.187.8.47.8 1.034v.012c0 .77-.635 1.154-1.6 1.154h-2.032v-4.208zM16.438 21.553c.033 0 .052-.017.052-.042v-.002c0-.029-.02-.043-.054-.043h-.066v.087h.068zm-.134-.146h.134a.13.13 0 01.094.033.09.09 0 01.026.066.093.093 0 01-.066.093l.074.108h-.078l-.065-.097h-.053v.097h-.066v-.3zm.369.158v-.002a.247.247 0 00-.252-.248.25.25 0 00-.253.25v.002c0 .137.109.248.252.248a.25.25 0 00.253-.25zm-.537.002v-.002c0-.153.126-.28.286-.28.16 0 .284.126.284.279v.002c0 .153-.126.28-.286.28a.281.281 0 01-.285-.279z" fill="#fff"/><path fill-rule="evenodd" clip-rule="evenodd" d="M5.002 24.57h-.567l-.086.438h-.23l.428-2.175h.362l.428 2.175h-.249l-.086-.438zm-.288-1.463l-.247 1.255h.5l-.253-1.255zm1.446-.296c.345 0 .505.218.505.547v.196H6.43v-.208c0-.196-.08-.314-.263-.314-.179 0-.262.118-.262.314v1.15c0 .195.083.313.262.313.183 0 .263-.118.263-.314v-.283h.236v.27c0 .33-.16.547-.505.547-.342 0-.502-.217-.502-.546v-1.125c0-.329.16-.547.502-.547zm1.36 0c.345 0 .505.218.505.547v.196h-.237v-.208c0-.196-.08-.314-.262-.314-.18 0-.262.118-.262.314v1.15c0 .195.083.313.262.313.182 0 .262-.118.262-.314v-.283h.237v.27c0 .33-.16.547-.505.547-.343 0-.503-.217-.503-.546v-1.125c0-.329.16-.547.503-.547zm.876.022h.5c.351 0 .498.174.498.497v.177c0 .24-.086.388-.278.448.205.059.282.22.282.453v.339a.53.53 0 00.044.26H9.19c-.03-.062-.042-.117-.042-.264v-.341c0-.245-.118-.323-.326-.323h-.176v.929h-.25v-2.175zm.25 1.025h.185c.199 0 .317-.062.317-.298v-.208c0-.196-.073-.298-.259-.298h-.243v.804zm1.404-.062h.547v.218h-.546v.773h.671v.22h-.921v-2.174h.921v.22h-.671v.743zm1.047-.963h.524c.35 0 .51.205.51.54v1.097c0 .333-.16.538-.51.538h-.524v-2.175zm.25 1.954h.271c.18 0 .266-.109.266-.307V23.36c0-.198-.087-.307-.269-.307h-.269v1.733zm1.16-1.954h.25v2.175h-.25v-2.175zm1.226 2.175h-.25v-1.954h-.412v-.22h1.075v.22h-.413v1.954zm.98-1.212h.546v.218h-.547v.773h.672v.22h-.921v-2.174h.921v.22h-.672v.743zm1.046-.963h.524c.349 0 .509.205.509.54v1.097c0 .333-.16.538-.509.538h-.524v-2.175zm.25 1.954h.271c.18 0 .266-.109.266-.307V23.36c0-.198-.087-.307-.27-.307h-.268v1.733zM5.703 26.001h.518c.36 0 .502.161.502.48v.103c0 .23-.069.372-.27.431.224.06.31.227.31.466v.183c0 .325-.168.508-.528.508h-.532v-2.17zm.257.921h.199c.204 0 .31-.062.31-.288v-.127c0-.193-.07-.286-.254-.286H5.96v.701zm0 1.03h.275c.188 0 .274-.093.274-.294v-.193c0-.242-.103-.322-.324-.322H5.96v.81zm1.43-1.95v1.659c0 .195.083.313.272.313.185 0 .267-.118.267-.313V26h.241v1.647c0 .33-.162.55-.518.55-.354 0-.516-.22-.516-.55v-1.647h.255zm1.67-.022c.35 0 .514.213.514.542v.06H9.33v-.072c0-.196-.08-.31-.264-.31-.185 0-.265.114-.265.307 0 .487.777.533.777 1.144 0 .33-.169.543-.522.543-.354 0-.519-.214-.519-.543v-.124h.241v.137c0 .195.086.31.271.31.185 0 .271-.115.271-.31 0-.484-.773-.53-.773-1.142 0-.335.165-.542.512-.542zM9.95 26h.258v2.171H9.95v-2.17zm.899.416v1.755h-.231v-2.17h.327l.535 1.569V26h.228v2.171h-.268l-.591-1.755zm1.53.546h.564v.217h-.565v.772h.694v.22h-.951v-2.17h.951v.22h-.694v.74zm1.565-.983c.35 0 .515.213.515.542v.06h-.244v-.072c0-.196-.08-.31-.264-.31-.185 0-.264.114-.264.307 0 .487.776.533.776 1.144 0 .33-.169.543-.522.543-.354 0-.519-.214-.519-.543v-.124h.241v.137c0 .195.086.31.271.31.185 0 .271-.115.271-.31 0-.484-.773-.53-.773-1.142 0-.335.165-.542.512-.542zm1.378 0c.35 0 .515.213.515.542v.06h-.244v-.072c0-.196-.08-.31-.265-.31s-.264.114-.264.307c0 .487.776.533.776 1.144 0 .33-.168.543-.521.543-.354 0-.52-.214-.52-.543v-.124h.242v.137c0 .195.086.31.27.31.186 0 .272-.115.272-.31 0-.484-.773-.53-.773-1.142 0-.335.165-.542.512-.542z" fill="#FEFEFE"/><path opacity=".167" fill-rule="evenodd" clip-rule="evenodd" d="M21.404 2.357v27.126h-.353V2.357h.353z" fill="#fff"/></svg>