<?xml version="1.0" encoding="utf-8"?>
<!-- Generator: Adobe Illustrator 23.0.5, SVG Export Plug-In . SVG Version: 6.00 Build 0)  -->
<svg version="1.1" id="Layer_1" xmlns="http://www.w3.org/2000/svg" xmlns:xlink="http://www.w3.org/1999/xlink" x="0px" y="0px"
	 viewBox="0 0 65 64" style="enable-background:new 0 0 65 64;" xml:space="preserve">
<style type="text/css">
	.st0{fill:url(#SVGID_1_);}
	.st1{fill:url(#SVGID_2_);}
	.st2{fill:url(#SVGID_3_);}
</style>
<linearGradient id="SVGID_1_" gradientUnits="userSpaceOnUse" x1="32.6216" y1="64" x2="32.6216" y2="38.4974">
	<stop  offset="0" style="stop-color:#061A23"/>
	<stop  offset="1" style="stop-color:#06373A"/>
</linearGradient>
<path class="st0" d="M64.6,42.3c-0.3-1.5-1.3-2.8-2.7-3.4c-1.6-0.7-3.6-0.5-5,0.7l-10.1,8.7c-0.4-2.4-2.5-4.2-5-4.2h-9.5L30.6,43
	c-2.8-1.7-6-2.6-9.3-2.6h-0.5c-3.1,0-6.1,1-8.6,2.9V43c0-1.4-1.1-2.5-2.5-2.5H3.1c-1.4,0-2.5,1.1-2.5,2.5v18.5
	c0,1.4,1.1,2.5,2.5,2.5h6.5c0.9,0,1.7-0.5,2.2-1.3h9.6c0.7,0,1.3-0.6,1.3-1.3s-0.6-1.3-1.3-1.3h-9.3V46.6c2.2-2.4,5.3-3.8,8.6-3.8
	h0.5c2.8,0,5.6,0.8,8,2.3l2,1.2c0.2,0.1,0.4,0.2,0.7,0.2h9.9c1.4,0,2.6,1.2,2.6,2.6c0,1.4-1.1,2.5-2.5,2.6l0,0h-13
	c-0.7,0-1.3,0.6-1.3,1.3s0.6,1.3,1.3,1.3h12.8c0.1,0,0.1,0,0.2,0c1.1,0,2.2-0.4,3.1-1.2l13.5-11.6c0.6-0.5,1.6-0.7,2.3-0.3
	c0.7,0.3,1.1,0.9,1.3,1.6c0.1,0.7-0.1,1.4-0.6,2L49.7,56.4c-2.5,2.5-5.7,3.8-9.2,3.8h-7.9c-0.7,0-1.3,0.6-1.3,1.3s0.6,1.3,1.3,1.3
	h7.9c4.1,0,8-1.6,11-4.6l11.7-11.7C64.3,45.4,64.8,43.8,64.6,42.3z M3.1,61.5V43l0,0h6.5v18.5H3.1z"/>
<linearGradient id="SVGID_2_" gradientUnits="userSpaceOnUse" x1="32.8944" y1="37.6" x2="32.8944" y2="-0.15">
	<stop  offset="0" style="stop-color:#061A23"/>
	<stop  offset="1" style="stop-color:#06373A"/>
</linearGradient>
<path class="st1" d="M8.5,14.9l9.4,5.4v8.5c0,0.7,0.4,1.4,1,1.8l9.5,6.2c0.9,0.6,1.8,0.8,2.8,0.8c1,0,2-0.3,2.8-0.8l9.5-6.2
	c0.6-0.4,1-1.1,1-1.8v-8.5L52,16v4c-1.7,0.5-3,2.2-3,4.1v10.4c0,0.7,0.6,1.3,1.3,1.3h6c0.7,0,1.3-0.6,1.3-1.3V24
	c0-1.9-1.3-3.5-3-4.1v-6.2c0-0.4-0.2-0.9-0.6-1.1L32,0c-0.4-0.2-0.9-0.2-1.2,0l-22,12.6c-0.4,0.2-0.6,0.6-0.6,1.1S8.1,14.7,8.5,14.9
	z M41.9,28.6l-9.3,6.1c-0.9,0.6-2,0.6-2.9,0l-9.3-6.1v-6.9l10.1,5.8c0.2,0.1,0.4,0.2,0.6,0.2s0.4-0.1,0.6-0.2l10.1-5.8L41.9,28.6
	L41.9,28.6z M54.9,33.2h-3.5V24c0-1,0.8-1.8,1.8-1.8S55,23,55,24L54.9,33.2L54.9,33.2z M31.1,2.7l17.3,9.9H34.6
	c-0.5-1.4-1.9-2.4-3.5-2.4c-2.1,0-3.8,1.7-3.8,3.8s1.7,3.8,3.8,3.8c1.7,0,3.1-1.1,3.6-2.6h13.7l-17.3,9.9L11.6,13.8L31.1,2.7z
	 M32.4,13.9c0,0.7-0.6,1.3-1.3,1.3s-1.3-0.6-1.3-1.3s0.6-1.3,1.3-1.3S32.4,13.2,32.4,13.9z"/>
<linearGradient id="SVGID_3_" gradientUnits="userSpaceOnUse" x1="27" y1="62.8" x2="27" y2="60.2">
	<stop  offset="0" style="stop-color:#061A23"/>
	<stop  offset="1" style="stop-color:#06373A"/>
</linearGradient>
<path class="st2" d="M27,60.2c-0.3,0-0.7,0.1-0.9,0.4s-0.4,0.6-0.4,0.9s0.1,0.7,0.4,0.9s0.6,0.4,0.9,0.4s0.7-0.1,0.9-0.4
	s0.4-0.6,0.4-0.9s-0.1-0.7-0.4-0.9S27.3,60.2,27,60.2z"/>
</svg>
