<svg width="138" height="64" fill="none" xmlns="http://www.w3.org/2000/svg"><g clip-path="url(#clip0)"><path fill-rule="evenodd" clip-rule="evenodd" d="M96.61 11.98h2.293v2.16H96.61v-2.16zm-58.9 0h11.604v2.16h-4.57v12.178H42.24V14.14h-4.55l.02-2.16zm11.106 3.957h2.14v2.007h.04c.076-.287.21-.554.4-.822.192-.268.421-.516.708-.727.268-.229.574-.4.918-.535a2.67 2.67 0 011.013-.21c.167 0 .305.008.408.013.061.003.11.006.146.006.096.02.21.038.306.038v2.199c-.153-.038-.325-.057-.497-.077l-.047-.005c-.153-.017-.294-.033-.45-.033-.382 0-.746.077-1.09.23-.344.152-.63.382-.898.669-.249.305-.459.669-.612 1.108-.153.44-.23.956-.23 1.53v4.932h-2.293l.038-10.323zm14.338 10.38h2.275v-10.38h-2.294v6.022c0 .401-.039.784-.134 1.128-.096.344-.23.65-.44.898-.191.249-.459.44-.784.593-.325.153-.726.23-1.204.23-.631 0-1.128-.192-1.472-.574-.364-.363-.536-1.013-.536-1.931v-6.366h-2.294v6.595c0 1.358.306 2.39.918 3.06.612.687 1.606 1.012 2.963 1.012a3.33 3.33 0 001.702-.478c.554-.325.975-.726 1.261-1.261h.039v1.453zm6.156-3.326c.076.669.325 1.128.765 1.415.44.267.975.401 1.586.401.21 0 .46-.02.727-.057.267-.038.535-.096.764-.192.249-.095.44-.229.593-.42a.979.979 0 00.21-.707c-.019-.287-.114-.536-.325-.727-.21-.191-.458-.325-.764-.459a6.634 6.634 0 00-1.07-.287 27.402 27.402 0 01-.99-.214h-.001l-.233-.053c-.42-.096-.841-.21-1.243-.344a3.562 3.562 0 01-1.07-.555 2.384 2.384 0 01-.746-.879c-.191-.363-.287-.784-.287-1.32 0-.573.134-1.032.42-1.414.268-.382.632-.688 1.052-.917a4.77 4.77 0 011.415-.498 8.098 8.098 0 011.472-.133c.535 0 1.051.057 1.53.172.477.114.936.287 1.318.554.402.249.727.593.975.994.268.402.421.899.497 1.472h-2.39c-.114-.554-.362-.917-.745-1.108a3.079 3.079 0 00-1.357-.287c-.153 0-.363.019-.574.038-.23.038-.42.076-.63.153a1.496 1.496 0 00-.498.325.765.765 0 00-.21.554.84.84 0 00.287.67c.191.172.44.305.765.44.305.114.669.21 1.07.286.402.076.822.172 1.243.268.42.095.822.21 1.223.344.402.133.765.305 1.07.554.307.23.574.516.765.86.192.344.287.784.287 1.281 0 .612-.133 1.128-.42 1.568-.287.42-.65.784-1.09 1.051-.44.268-.956.46-1.491.593a8.01 8.01 0 01-1.625.191 6.85 6.85 0 01-1.816-.23 4.628 4.628 0 01-1.453-.668 3.21 3.21 0 01-.956-1.128c-.23-.44-.363-.975-.382-1.606h2.313v.019h.019zm9.29-7.054h-1.74v1.702h1.74v6.117c.02.42.058.822.134 1.147.076.325.21.593.42.822.21.21.498.383.86.497.364.115.842.172 1.454.172.267 0 .497 0 .745-.038.249-.019.497-.038.746-.076v-1.778c-.138.034-.291.053-.432.07l-.046.006c-.153.02-.325.02-.478.02-.268 0-.459-.039-.612-.096a.748.748 0 01-.325-.268 1.323 1.323 0 01-.133-.44c-.02-.19-.039-.382-.039-.63V17.62h2.065v-1.702h-2.065v-3.116H78.6v3.135zm5.985 0h2.142v1.414h.038c.325-.611.764-1.032 1.338-1.3a4.335 4.335 0 011.874-.401c.822 0 1.529.134 2.14.44.612.286 1.11.669 1.511 1.185.401.497.707 1.09.898 1.759.192.669.306 1.395.306 2.14a7.85 7.85 0 01-.267 2.027c-.191.65-.46 1.243-.822 1.74a4.067 4.067 0 01-1.396 1.204c-.573.306-1.223.46-1.988.46a5.84 5.84 0 01-.994-.096 4.235 4.235 0 01-.956-.287 3.43 3.43 0 01-.841-.516 2.915 2.915 0 01-.65-.727h-.039v5.181h-2.294V15.937zm7.8 3.842c.133.44.19.9.19 1.358 0 .459-.057.898-.152 1.357-.096.44-.268.822-.497 1.166a3.08 3.08 0 01-.899.822c-.363.21-.784.325-1.319.325-.478 0-.88-.095-1.242-.286a2.732 2.732 0 01-.918-.765c-.268-.325-.44-.707-.574-1.147-.133-.44-.19-.918-.19-1.453 0-1.109.248-2.007.726-2.676.497-.67 1.223-.995 2.179-.995.459 0 .88.096 1.243.306.344.21.65.478.898.822.249.345.44.727.555 1.166zm6.518-3.842H96.61v10.38h2.294v-10.38zm2.045-3.957h2.294v14.338h-2.294V11.979zm7.075 14.204c.65.286 1.395.42 2.217.42.841 0 1.568-.153 2.218-.42a4.587 4.587 0 001.644-1.128c.44-.497.765-1.07 1.013-1.74.249-.67.363-1.395.363-2.198 0-.784-.133-1.51-.363-2.18a4.9 4.9 0 00-1.013-1.74 4.758 4.758 0 00-1.644-1.127c-.65-.287-1.396-.421-2.218-.421-.822 0-1.567.153-2.217.42-.65.268-1.205.65-1.644 1.128a5.09 5.09 0 00-1.014 1.74c-.248.67-.363 1.396-.363 2.18 0 .783.134 1.529.363 2.198.23.67.574 1.262 1.014 1.74.458.478.994.84 1.644 1.128zm2.218-1.396c.497 0 .956-.114 1.319-.325.383-.21.669-.497.918-.84a3.62 3.62 0 00.535-1.167 5.23 5.23 0 000-2.657 3.443 3.443 0 00-.535-1.166 2.913 2.913 0 00-.918-.823 2.696 2.696 0 00-1.319-.325c-.497 0-.956.115-1.319.325-.382.21-.669.498-.918.823-.248.344-.42.726-.535 1.166a5.194 5.194 0 000 2.657c.115.44.287.822.535 1.166.249.344.555.631.918.841.382.23.822.325 1.319.325zm7.666-8.85h-1.74v1.7h1.74v6.118c.019.42.057.822.133 1.147.077.325.211.593.421.822.21.21.497.383.86.497.363.115.841.172 1.453.172.268 0 .497 0 .746-.038.248-.019.497-.038.745-.076v-1.778c-.137.034-.291.053-.432.07-.015.003-.03.004-.046.006-.153.02-.325.02-.478.02-.267 0-.458-.039-.611-.096a.744.744 0 01-.325-.268 1.307 1.307 0 01-.134-.44 5.916 5.916 0 01-.038-.63V17.62h2.064v-1.702h-2.064v-3.116h-2.294v3.135z" fill="#020101"/><path d="M35.032 11.98H24.537L21.306 2l-3.25 9.98-10.495-.02 8.488 6.175-3.25 9.98 8.488-6.175 8.488 6.174-3.23-9.979 8.487-6.156z" fill="#00B67A"/><path d="M27.271 20.39l-.726-2.255-5.239 3.804 5.965-1.548z" fill="#005128"/><path fill="#1BB57C" d="M-.119 38.16h25.6v25.6h-25.6z"/><path fill-rule="evenodd" clip-rule="evenodd" d="M14.785 48.952h6.874L16.102 53l-3.385 2.468-.021.006.007.005-.038.027L7.11 59.52 9.229 53l-5.557-4.048h6.873l2.12-6.52 2.12 6.52zm-2.082 6.526l5.518 4.01-1.638-5.043-3.866 1.023-.014.01z" fill="#fff"/><path fill="#1BB57C" d="M28.041 38.16h25.6v25.6h-25.6z"/><path fill-rule="evenodd" clip-rule="evenodd" d="M42.945 48.952h6.873L44.263 53l-3.386 2.469-.02.005.006.004-.037.028-5.557 4.015 2.12-6.52-5.557-4.048h6.874l2.12-6.52 2.12 6.52zm-2.083 6.525l5.52 4.01-1.639-5.042-3.867 1.023-.014.01z" fill="#fff"/><path fill="#1BB57C" d="M56.201 38.16h25.6v25.6h-25.6z"/><path fill-rule="evenodd" clip-rule="evenodd" d="M71.105 48.952h6.873L72.422 53l-3.386 2.469-.02.005.006.004-.037.028-5.557 4.015 2.12-6.52-5.557-4.048h6.874l2.12-6.52 2.12 6.52zm-2.083 6.525l5.519 4.01-1.638-5.042-3.867 1.023-.014.01z" fill="#fff"/><path fill="#1BB57C" d="M84.361 38.16h25.6v25.6h-25.6z"/><path fill-rule="evenodd" clip-rule="evenodd" d="M99.265 48.952h6.874L100.582 53l-3.386 2.469-.02.005.007.005-.038.027-5.556 4.015 2.12-6.52-5.557-4.048h6.873l2.12-6.52 2.12 6.52zm-2.082 6.526l5.518 4.01-1.638-5.043-3.867 1.023-.013.01z" fill="#fff"/><path fill="#1BB57C" d="M112.521 38.16h25.6v25.6h-25.6z"/><path fill-rule="evenodd" clip-rule="evenodd" d="M127.424 48.952h6.874L128.741 53l-3.386 2.469-.019.005.006.004-.038.028-5.557 4.015 2.12-6.52-5.556-4.048h6.873l2.12-6.52 2.12 6.52zm-2.082 6.525l5.519 4.01-1.638-5.042-3.868 1.023-.013.01z" fill="#fff"/></g><defs><clipPath id="clip0"><path fill="#fff" d="M0 0h138v64H0z"/></clipPath></defs></svg>